#!OML:ASF H:\BreakDance\Project 1\Capture day 1\Session 1\Male.ASF
:FULLY-SPECIFIED
:DEGREES
704
root -12.2924 11.7302 -0.212163 -297.029 58.4319 841.081
lowerback 4.42936 -11.3594 3.51231
upperback 1.72448 -14.0716 10.262
thorax 1.1764 -6.71346 9.22188
lowerneck -9.80166 3.44794 -4.78701
upperneck 182.813 -187.38 -201.259
head 183.217 -183.149 -185.285
rclavicle 7.31528e-014 3.18055e-015
rhumerus -49.8355 -24.5205 20.8618
rradius 17.3954
rwrist 22.7075
rhand -11.133 -73.5628
rfingers 7.12502
rthumb 14.8924 103.007
lclavicle 7.31528e-014 3.18055e-015
lhumerus -25.1169 -1.60859 5.97723
lradius 25.111
lwrist 31.209
lhand -40.7764 331.495
lfingers 7.12502
lthumb -13.7161 1.02345
rfemur -7.63631 -1.38872 -8.18277
rtibia 91.5598
rfoot -30.4013 -12.5106
rtoes 22.9961
lfemur -48.7544 8.64224 -44.5296
ltibia 43.6573
lfoot -24.3714 -13.4515
ltoes -31.8509
705
root -12.295 11.7251 -0.183518 -295.674 60.023 841.593
lowerback 4.56899 -11.0635 3.52562
upperback 1.81417 -13.6731 10.3978
thorax 1.17191 -6.5191 9.38014
lowerneck -9.28769 4.56108 -5.19958
upperneck 182.988 -188.963 -200.63
head 183.264 -183.991 -184.916
rclavicle 1.90833e-014 9.22361e-014
rhumerus -49.4374 -26.9984 22.4991
rradius 17.2296
rwrist 25.9948
rhand -10.2658 -74.9246
rfingers 7.12502
rthumb 15.7277 104.305
lclavicle 1.90833e-014 9.22361e-014
lhumerus -30.1627 0.811957 7.1907
lradius 24.6838
lwrist 29.4292
lhand -41.2664 331.001
lfingers 7.12502
lthumb -14.1883 0.496543
rfemur -7.8244 -3.49055 -7.22279
rtibia 91.3353
rfoot -31.0093 -11.8502
rtoes 24.4638
lfemur -49.1944 7.98973 -44.8319
ltibia 44.3261
lfoot -24.6012 -13.8102
ltoes -31.5924
706
root -12.3039 11.7295 -0.162055 -294.679 61.6281 841.764
lowerback 4.57486 -10.6306 3.72871
upperback 2.01349 -13.1183 10.4133
thorax 1.25759 -6.24541 9.27176
lowerneck -8.81029 5.58022 -5.28859
upperneck 183.2 -190.363 -200.025
head 183.315 -184.732 -184.623
rclavicle 1.7175e-013 -5.08889e-014
rhumerus -48.6549 -29.0333 23.0717
rradius 17.1178
rwrist 28.6569
rhand -9.93833 -75.5775
rfingers 7.12502
rthumb 16.043 104.933
lclavicle 1.7175e-013 -5.08889e-014
lhumerus -34.7647 3.44657 8.06998
lradius 24.1994
lwrist 27.3608
lhand -41.8001 330.357
lfingers 7.12502
lthumb -14.7025 -0.184133
rfemur -8.08402 -5.57444 -6.23417
rtibia 91.0597
rfoot -31.4382 -11.1479
rtoes 26.1623
lfemur -49.6358 7.40416 -44.9413
ltibia 44.9809
lfoot -24.8006 -13.9714
ltoes -31.2023
707
root -12.3187 11.7388 -0.146836 -294.086 63.2185 841.618
lowerback 4.50003 -10.0128 4.08726
upperback 2.31463 -12.3485 10.2307
thorax 1.38789 -5.86507 8.84052
lowerneck -8.2109 6.45713 -4.85758
upperneck 183.323 -191.464 -199.555
head 183.322 -185.33 -184.484
rclavicle 5.08889e-014 8.5875e-014
rhumerus -47.7339 -30.4476 22.7028
rradius 17.012
rwrist 30.934
rhand -9.55481 -74.7398
rfingers 7.12502
rthumb 16.4123 104.065
lclavicle 5.08889e-014 8.5875e-014
lhumerus -38.7156 6.03511 8.64751
lradius 23.6704
lwrist 25.361
lhand -42.4172 329.607
lfingers 7.12502
lthumb -15.297 -0.978943
rfemur -8.39069 -7.6268 -5.27402
rtibia 90.7953
rfoot -31.6362 -10.3814
rtoes 27.8823
lfemur -50.0367 6.85119 -44.879
ltibia 45.5789
lfoot -24.9237 -14.0229
ltoes -30.6971
708
root -12.3386 11.7497 -0.135452 -293.878 64.6961 841.251
lowerback 4.3988 -9.16526 4.49842
upperback 2.75463 -11.3166 9.75481
thorax 1.58792 -5.35908 8.0441
lowerneck -7.58085 7.16323 -3.7348
upperneck 183.29 -192.227 -199.311
head 183.306 -185.765 -184.55
rclavicle -3.49861e-014 1.04958e-013
rhumerus -47.0573 -31.4061 21.7422
rradius 16.9085
rwrist 32.808
rhand -8.78691 -72.4379
rfingers 7.12502
rthumb 17.1516 101.701
lclavicle -3.49861e-014 1.04958e-013
lhumerus -41.7635 8.35554 9.07222
lradius 23.0905
lwrist 23.7881
lhand -43.123 328.794
lfingers 7.12502
lthumb -15.9768 -1.84515
rfemur -8.66042 -9.61362 -4.48181
rtibia 90.5707
rfoot -31.5998 -9.54001
rtoes 29.3376
lfemur -50.339 6.3268 -44.7561
ltibia 46.1007
lfoot -24.9635 -14.0932
ltoes -30.1313
709
root -12.3605 11.7598 -0.125286 -294.003 65.9925 840.77
lowerback 4.34024 -8.101 4.88705
upperback 3.24306 -10.0235 8.96746
thorax 1.76763 -4.72878 6.92595
lowerneck -6.84841 7.70314 -2.01699
upperneck 183.147 -192.687 -199.242
head 183.268 -186.052 -184.791
rclavicle -4.45278e-014 -3.18055e-015
rhumerus -46.5488 -31.5832 20.1121
rradius 16.8741
rwrist 33.3621
rhand -7.90521 -68.9937
rfingers 7.12502
rthumb 18 98.1807
lclavicle -4.45278e-014 -3.18055e-015
lhumerus -43.8649 10.1565 9.53013
lradius 22.4579
lwrist 22.8182
lhand -43.9132 328.059
lfingers 7.12502
lthumb -16.7377 -2.64267
rfemur -8.79995 -11.5055 -3.95659
rtibia 90.3814
rfoot -31.3746 -8.63234
rtoes 30.3946
lfemur -50.5162 5.83527 -44.6725
ltibia 46.5508
lfoot -24.9491 -14.2804
ltoes -29.7109
710
root -12.3834 11.7707 -0.114265 -294.492 67.1773 840.111
lowerback 4.31686 -6.86947 5.35068
upperback 3.71176 -8.51083 7.92126
thorax 1.89659 -3.9886 5.49849
lowerneck -6.07421 8.132 -0.0122457
upperneck 182.989 -192.958 -199.054
head 183.219 -186.243 -185.06
rclavicle -2.22639e-014 4.13472e-014
rhumerus -46.0984 -31.0584 17.8897
rradius 16.9738
rwrist 31.9922
rhand -7.18048 -65.0535
rfingers 7.12502
rthumb 18.6972 94.1749
lclavicle -2.22639e-014 4.13472e-014
lhumerus -45.1452 11.4134 10.0652
lradius 21.78
lwrist 22.2964
lhand -44.7278 327.447
lfingers 7.12502
lthumb -17.5217 -3.32285
rfemur -8.76809 -13.2879 -3.5959
rtibia 90.1784
rfoot -31.0281 -7.70078
rtoes 31.103
lfemur -50.6118 5.38306 -44.5766
ltibia 46.9541
lfoot -24.8967 -14.6312
ltoes -29.5621
711
root -12.4048 11.7836 -0.101691 -295.333 68.3614 839.239
lowerback 4.32125 -5.55523 5.96971
upperback 4.13179 -6.86988 6.73571
thorax 2.00651 -3.17658 3.84947
lowerneck -5.30896 8.49781 2.0509
upperneck 182.618 -193.118 -198.773
head 183.1 -186.383 -185.326
rclavicle -3.18055e-014 3.18055e-014
rhumerus -45.5207 -30.2594 15.2518
rradius 17.2355
rwrist 28.6532
rhand -7.20479 -61.3471
rfingers 7.12502
rthumb 18.6739 90.4707
lclavicle -3.18055e-014 3.18055e-014
lhumerus -45.8406 12.3032 10.6522
lradius 21.0659
lwrist 22.0647
lhand -45.4393 327.129
lfingers 7.12502
lthumb -18.2064 -3.70342
rfemur -8.53936 -14.9842 -3.25553
rtibia 89.9124
rfoot -30.6384 -6.80334
rtoes 31.5161
lfemur -50.6979 4.94078 -44.3885
ltibia 47.3597
lfoot -24.8018 -15.1176
ltoes -29.5938
712
root -12.4231 11.8001 -0.0878828 -296.487 69.6478 838.153
lowerback 4.34906 -4.25968 6.74433
upperback 4.4078 -5.21911 5.5541
thorax 2.05377 -2.35056 2.13382
lowerneck -4.48081 8.86143 3.90503
upperneck 182.063 -193.286 -198.351
head 182.9 -186.533 -185.525
rclavicle -3.81667e-014 2.22639e-014
rhumerus -44.4184 -29.2402 12.1855
rradius 17.6819
rwrist 23.5681
rhand -8.208 -58.5673
rfingers 7.12502
rthumb 17.7087 -87.7809
lclavicle -3.81667e-014 2.22639e-014
lhumerus -46.3658 13.0616 11.0602
lradius 20.3153
lwrist 21.6033
lhand -46.1541 326.619
lfingers 7.12502
lthumb -18.8939 -4.2783
rfemur -8.07936 -16.6414 -2.82227
rtibia 89.5277
rfoot -30.2631 -5.97271
rtoes 31.7452
lfemur -50.8198 4.47221 -44.0453
ltibia 47.8064
lfoot -24.6981 -15.6436
ltoes -29.7623
713
root -12.4357 11.8196 -0.0732767 -297.951 71.0452 836.859
lowerback 4.41561 -3.04599 7.55753
upperback 4.54326 -3.64268 4.49494
thorax 2.05848 -1.55627 0.535738
lowerneck -3.6072 9.26583 5.40233
upperneck 181.247 -193.543 -197.888
head 182.605 -186.731 -185.66
rclavicle 0 -2.54444e-014
rhumerus -42.7253 -28.7836 9.32568
rradius 18.1862
rwrist 18.2955
rhand -9.89977 -56.8699
rfingers 7.12502
rthumb 16.0802 -86.2227
lclavicle 0 -2.54444e-014
lhumerus -47.0438 14.022 11.0773
lradius 19.5359
lwrist 20.5678
lhand -46.7549 325.823
lfingers 7.12502
lthumb -19.4716 -5.13214
rfemur -7.34416 -18.2619 -2.30094
rtibia 89.0022
rfoot -29.9542 -5.19064
rtoes 31.9634
lfemur -50.9817 3.97565 -43.5665
ltibia 48.3179
lfoot -24.615 -16.1189
ltoes -29.9476
